<svg xmlns="http://www.w3.org/2000/svg" viewBox="0 0 560 360">
  <defs>
    <linearGradient id="sky" x1="0" y1="0" x2="0" y2="1">
      <stop offset="0%" stop-color="#eef3ff" />
      <stop offset="100%" stop-color="#d6e0ff" />
    </linearGradient>
    <linearGradient id="shadow" x1="0" y1="0" x2="0" y2="1">
      <stop offset="0%" stop-color="rgba(255,255,255,0.5)" />
      <stop offset="100%" stop-color="rgba(255,255,255,0)" />
    </linearGradient>
  </defs>
  <rect width="560" height="360" rx="30" fill="url(#sky)" />
  <rect x="80" y="140" width="400" height="180" rx="24" fill="#ffffff" />
  <rect x="110" y="90" width="340" height="60" rx="18" fill="#f5f7ff" />
  <rect x="220" y="60" width="120" height="90" rx="20" fill="#ffffff" />
  <rect x="148" y="170" width="52" height="100" rx="12" fill="#d8d8ff" />
  <rect x="240" y="170" width="52" height="100" rx="12" fill="#d8d8ff" />
  <rect x="332" y="170" width="52" height="100" rx="12" fill="#d8d8ff" />
  <path d="M140 105h56v40h-56zm155 0h56v40h-56zm155 0h56v40h-56z" fill="#e3e7ff" opacity="0.85" />
  <rect x="118" y="240" width="324" height="20" rx="10" fill="#eef2ff" />
  <text x="280" y="265" text-anchor="middle" font-family="Inter, sans-serif" font-weight="700" font-size="38" fill="#4f4f6a">BANK</text>
  <circle cx="80" cy="90" r="22" fill="#c1c7ff" />
  <circle cx="88" cy="100" r="10" fill="#ffffff" />
  <path d="M74 90c0-5 4-9 9-9" fill="none" stroke="#a3abeb" stroke-width="3" />
  <rect x="0" y="0" width="560" height="360" rx="30" fill="url(#shadow)" opacity="0.1" />
</svg>
